<svg width="102" height="120" viewBox="0 0 102 120" fill="none" xmlns="http://www.w3.org/2000/svg">
<path fill-rule="evenodd" clip-rule="evenodd" d="M74.3795 15.3928C75.5955 18.4181 76.2213 21.6605 76.2213 24.9351L92.7484 24.9351C94.8779 24.9351 96.634 26.6035 96.7431 28.7302L100.993 111.59C101.228 116.163 97.5829 120 93.0036 120H8.99677C4.43042 120 0.790383 116.184 1.00566 111.623L4.9172 28.7465C5.01789 26.613 6.77693 24.9351 8.91275 24.9351H27.8305C27.8305 21.6605 28.4563 18.4181 29.6723 15.3928C30.8882 12.3676 32.6704 9.61875 34.9172 7.30331C37.1639 4.98788 39.8312 3.15117 42.7667 1.89807C45.7022 0.644965 48.8485 0 52.0259 0C55.2033 0 58.3496 0.644964 61.2851 1.89807C64.2206 3.15117 66.8879 4.98788 69.1346 7.30331C71.3814 9.61874 73.1636 12.3676 74.3795 15.3928ZM31.4598 24.9351L72.592 24.9351C72.592 22.1517 72.06 19.3956 71.0265 16.8242C69.993 14.2527 68.4781 11.9162 66.5683 9.94807C64.6586 7.97995 62.3914 6.41876 59.8962 5.35362C57.401 4.28848 54.7267 3.74026 52.0259 3.74026C49.3251 3.74026 46.6508 4.28848 44.1556 5.35362C41.6604 6.41876 39.3932 7.97995 37.4835 9.94807C35.5737 11.9162 34.0588 14.2527 33.0253 16.8242C31.9918 19.3956 31.4598 22.1517 31.4598 24.9351Z" fill="#D1D1D1"/>
</svg>
