<svg width="164" height="25" viewBox="0 0 164 25" fill="none" xmlns="http://www.w3.org/2000/svg">
<path d="M13.3197 0.0143433C0 0.0143433 0 12.5071 0 12.5071H0.3922C0.3922 11.927 0 6.26778 13.3046 6.26778H36.8819V0.0143433H13.3197Z" fill="black"/>
<path d="M13.32 18.7462C0.000296473 18.7462 0.407581 13.087 0.407581 12.5069H0.0153809C0.0153809 12.5069 0.0153797 24.9996 13.3351 24.9996H36.9124V18.7603L13.32 18.7462Z" fill="black"/>
<path d="M148.915 6.26798H164V0.0286865H127.103V6.26798H142.263V12.5073C142.263 25 155.583 25 155.583 25V24.6322C154.964 24.6322 148.93 25 148.93 12.5214V6.26798H148.915Z" fill="black"/>
<path d="M50.2168 12.5071V0.0143433H43.5645V12.5071C43.5645 24.9998 56.8842 24.9998 56.8842 24.9998V24.632C56.2506 24.6178 50.2168 24.9857 50.2168 12.5071Z" fill="black"/>
<path d="M83.4933 12.5071V0.0143433H76.841V12.5071C76.841 24.9998 70.8071 24.6178 70.1886 24.6178H56.8689V24.9857H70.1886C70.1886 24.9857 83.4933 24.9857 83.4933 12.5071Z" fill="black"/>
<path d="M101.806 18.7603C105.728 17.9114 111.958 15.2092 111.958 6.64959V0H105.306V6.63544C105.306 17.2465 100.961 18.5764 99.272 18.7462H90.1458V24.9996H127.043V18.7462H101.806V18.7603Z" fill="black"/>
</svg>
