<svg width="100" height="16" viewBox="0 0 100 16" fill="none" xmlns="http://www.w3.org/2000/svg">
<path d="M8.12168 0.00915527C0 0.00915527 0 8.00449 0 8.00449H0.239143C0.239143 7.63324 0 4.01135 8.11248 4.01135H22.4887V0.00915527H8.12168Z" fill="black"/>
<path d="M8.12188 11.9974C0.000201735 11.9974 0.248543 8.37552 0.248543 8.00427H0.00939941C0.00939941 8.00427 0.00939871 15.9996 8.13107 15.9996H22.5073V12.0065L8.12188 11.9974Z" fill="black"/>
<path d="M90.8008 4.01145H99.9986V0.0183105H77.5007V4.01145H86.7445V8.00459C86.7445 15.9999 94.8662 15.9999 94.8662 15.9999V15.7645C94.4891 15.7645 90.81 15.9999 90.81 8.01364V4.01145H90.8008Z" fill="black"/>
<path d="M30.6195 8.00449V0.00915527H26.5632V8.00449C26.5632 15.9998 34.6849 15.9998 34.6849 15.9998V15.7644C34.2986 15.7553 30.6195 15.9908 30.6195 8.00449Z" fill="black"/>
<path d="M50.91 8.00449V0.00915527H46.8537V8.00449C46.8537 15.9998 43.1746 15.7553 42.7975 15.7553H34.6758V15.9908H42.7975C42.7975 15.9908 50.91 15.9908 50.91 8.00449Z" fill="black"/>
<path d="M62.076 12.0066C64.4674 11.4633 68.2661 9.73385 68.2661 4.25573V0H64.2099V4.24667C64.2099 11.0377 61.5609 11.8889 60.5308 11.9975H54.9661V15.9997H77.464V11.9975H62.076V12.0066Z" fill="black"/>
</svg>
