<svg width="24" height="24" viewBox="0 0 24 24" fill="none" xmlns="http://www.w3.org/2000/svg">
<path d="M19.8793 16.5684C18.7008 15.0638 17.8688 14.2979 17.8688 10.1497C17.8688 6.35105 16.0092 4.9977 14.4787 4.34041C14.2754 4.25329 14.0841 4.05318 14.0221 3.83536C13.7536 2.88222 13.001 2.04254 12.0005 2.04254C11.0001 2.04254 10.247 2.8827 9.98129 3.83632C9.91934 4.05653 9.72797 4.25329 9.52467 4.34041C7.99233 4.99866 6.13461 6.34722 6.13461 10.1497C6.13232 14.2979 5.30029 15.0638 4.12178 16.5684C3.63349 17.1917 4.0612 18.1276 4.91526 18.1276H19.0904C19.9399 18.1276 20.3648 17.1889 19.8793 16.5684ZM14.9376 18.1276V18.8936C14.9376 19.7062 14.6282 20.4855 14.0774 21.0601C13.5266 21.6346 12.7795 21.9574 12.0005 21.9574C11.2216 21.9574 10.4745 21.6346 9.9237 21.0601C9.37289 20.4855 9.06345 19.7062 9.06345 18.8936V18.1276" fill="white"/>
<path d="M14.9376 18.1276V18.8936C14.9376 19.7062 14.6282 20.4855 14.0774 21.0601C13.5266 21.6346 12.7795 21.9574 12.0005 21.9574C11.2216 21.9574 10.4745 21.6346 9.9237 21.0601C9.37289 20.4855 9.06345 19.7062 9.06345 18.8936V18.1276M19.8793 16.5684C18.7008 15.0638 17.8688 14.2979 17.8688 10.1497C17.8688 6.35105 16.0092 4.9977 14.4787 4.34041C14.2754 4.25329 14.0841 4.05318 14.0221 3.83536C13.7536 2.88222 13.001 2.04254 12.0005 2.04254C11.0001 2.04254 10.247 2.8827 9.98129 3.83632C9.91934 4.05653 9.72797 4.25329 9.52467 4.34041C7.99233 4.99866 6.13461 6.34722 6.13461 10.1497C6.13232 14.2979 5.30029 15.0638 4.12178 16.5684C3.63349 17.1917 4.0612 18.1276 4.91526 18.1276H19.0904C19.9399 18.1276 20.3648 17.1889 19.8793 16.5684Z" stroke="black" stroke-width="2" stroke-linecap="round" stroke-linejoin="round"/>
</svg>
