<svg width="22" height="24" viewBox="0 0 22 24" fill="none" xmlns="http://www.w3.org/2000/svg">
<g filter="url(#filter0_d_1624_6640)">
<path d="M17.5661 13.807C16.584 12.5532 15.8906 11.9149 15.8906 8.45811C15.8906 5.29255 14.341 4.16476 13.0656 3.61702C12.8962 3.54441 12.7367 3.37766 12.6851 3.19614C12.4613 2.40186 11.8341 1.70213 11.0004 1.70213C10.1667 1.70213 9.53916 2.40226 9.31773 3.19694C9.2661 3.38045 9.10663 3.54441 8.93721 3.61702C7.66026 4.16556 6.11216 5.28936 6.11216 8.45811C6.11025 11.9149 5.4169 12.5532 4.4348 13.807C4.02789 14.3265 4.38432 15.1064 5.09603 15.1064H16.9087C17.6166 15.1064 17.9707 14.3241 17.5661 13.807ZM13.448 15.1064V15.7447C13.448 16.4218 13.1902 17.0712 12.7311 17.5501C12.2721 18.0289 11.6496 18.2979 11.0004 18.2979C10.3513 18.2979 9.72875 18.0289 9.26974 17.5501C8.81073 17.0712 8.55286 16.4218 8.55286 15.7447V15.1064" fill="white"/>
<path d="M13.448 15.1064V15.7447C13.448 16.4218 13.1902 17.0712 12.7311 17.5501C12.2721 18.0289 11.6496 18.2979 11.0004 18.2979C10.3513 18.2979 9.72875 18.0289 9.26974 17.5501C8.81073 17.0712 8.55286 16.4218 8.55286 15.7447V15.1064M17.5661 13.807C16.584 12.5532 15.8906 11.9149 15.8906 8.45811C15.8906 5.29255 14.341 4.16476 13.0656 3.61702C12.8962 3.54441 12.7367 3.37766 12.6851 3.19614C12.4613 2.40186 11.8341 1.70213 11.0004 1.70213C10.1667 1.70213 9.53916 2.40226 9.31773 3.19694C9.2661 3.38045 9.10663 3.54441 8.93721 3.61702C7.66026 4.16556 6.11216 5.28936 6.11216 8.45811C6.11025 11.9149 5.4169 12.5532 4.4348 13.807C4.02789 14.3265 4.38432 15.1064 5.09603 15.1064H16.9087C17.6166 15.1064 17.9707 14.3241 17.5661 13.807Z" stroke="black" stroke-linecap="round" stroke-linejoin="round"/>
</g>
<defs>
<filter id="filter0_d_1624_6640" x="-2" y="-1" width="26" height="26" filterUnits="userSpaceOnUse" color-interpolation-filters="sRGB">
<feFlood flood-opacity="0" result="BackgroundImageFix"/>
<feColorMatrix in="SourceAlpha" type="matrix" values="0 0 0 0 0 0 0 0 0 0 0 0 0 0 0 0 0 0 127 0" result="hardAlpha"/>
<feOffset dy="2"/>
<feGaussianBlur stdDeviation="1.5"/>
<feComposite in2="hardAlpha" operator="out"/>
<feColorMatrix type="matrix" values="0 0 0 0 0 0 0 0 0 0 0 0 0 0 0 0 0 0 0.12 0"/>
<feBlend mode="normal" in2="BackgroundImageFix" result="effect1_dropShadow_1624_6640"/>
<feBlend mode="normal" in="SourceGraphic" in2="effect1_dropShadow_1624_6640" result="shape"/>
</filter>
</defs>
</svg>
