<svg width="28" height="28" viewBox="0 0 28 28" fill="none" xmlns="http://www.w3.org/2000/svg">
<path d="M14 1.75C7.24338 1.75 1.75 7.24338 1.75 14C1.75 20.7566 7.24338 26.25 14 26.25C20.7566 26.25 26.25 20.7566 26.25 14C26.25 7.24338 20.7566 1.75 14 1.75ZM21.3877 9.42038L13.6985 19.7104C13.5289 19.927 13.2753 20.0694 13.002 20.0873H12.9446C12.6808 20.0873 12.4358 19.9836 12.2576 19.7951L6.68832 13.9808C6.32002 13.6134 6.33895 13.0104 6.71587 12.6523C7.09279 12.2944 7.68634 12.3036 8.04458 12.6797L12.8512 17.6929L19.8808 8.28972C20.1917 7.87515 20.7855 7.79039 21.1992 8.10126C21.6136 8.41214 21.6985 9.00572 21.3874 9.42028L21.3877 9.42038Z" fill="#34A853"/>
</svg>
