<svg width="110" height="33" viewBox="0 0 110 33" fill="none" xmlns="http://www.w3.org/2000/svg">
<path d="M18.1837 16.098H18.4401C18.4401 15.7243 18.1837 12.0908 26.8095 12.0908H37.0781V8.08264H26.8104C18.1837 8.08264 18.1837 16.098 18.1837 16.098Z" fill="black"/>
<path d="M26.8104 20.1061C18.1847 20.1061 18.4411 16.4726 18.4411 16.0989H18.1847C18.1847 16.0989 18.1847 24.1142 26.8104 24.1142H37.0781V20.1061H26.8104Z" fill="black"/>
<path d="M101.39 8.0799H82.0159V12.088H89.5466V16.0998H89.5476C89.5476 24.1152 85.6374 23.8769 85.2353 23.8769V24.1152C85.2353 24.1152 93.86 24.1152 93.86 16.0998V12.088H101.391V8.0799H101.39Z" fill="black"/>
<path d="M67.2744 20.1079C69.8098 19.5787 73.8922 17.8766 73.9264 12.4008H73.9274H73.9284V8.08081H69.615V12.3317C69.615 19.6642 66.3438 20.0898 65.4778 20.1089H62.7292V24.117H81.8407V20.1089H67.2744V20.1079Z" fill="black"/>
<path d="M45.0951 16.098V8.08264H40.7818V16.098C40.7818 24.1134 49.4075 24.1134 49.4075 24.1134V23.8751C49.0053 23.8751 45.0951 24.1134 45.0951 16.098Z" fill="black"/>
<path d="M60.5882 8.08264H56.2748V16.098C56.2748 24.1134 52.3646 23.8751 51.9625 23.8751V24.1134C51.9625 24.1134 60.5882 24.1134 60.5882 16.098V8.08264V8.08264Z" fill="black"/>
<path d="M49.4075 23.8751V24.1134H51.9625V23.8751H49.4075Z" fill="black"/>
<path d="M11.5572 22.764H8.65192V24.1134H11.5572C14.4624 24.1134 14.4624 21.4137 14.4624 21.4137H14.3763C14.3753 21.5401 14.4614 22.764 11.5572 22.764Z" fill="black"/>
<path d="M11.5562 17.9156H8.65192V19.265H11.5572C14.4614 19.265 14.3753 20.4889 14.3753 20.6144H14.4614C14.4614 20.6144 14.4614 17.9156 11.5562 17.9156Z" fill="black"/>
<path d="M14.3753 20.6144V21.4146H14.4627V20.6144H14.3753Z" fill="black"/>
<path d="M11.5572 12.3262H14.4624V10.976H11.519V10.9769C8.6529 11.0014 8.65192 13.6756 8.65192 13.6756V15.0259V15.035V16.3762H14.4614V15.0259H8.73803V13.6756H8.69106H8.73803C8.73803 13.5501 8.65094 12.3262 11.5572 12.3262Z" fill="black"/>
<path d="M13.3205 9.46382H14.4624V8.11353H13.7755L13.3205 9.46382Z" fill="black"/>
<path d="M11.521 8.11352V8.11443C8.65192 8.13716 8.65094 10.8132 8.65094 10.8132H8.73705C8.73705 10.6877 8.65094 9.4629 11.5562 9.4629H12.3693L12.8381 8.11261H11.521V8.11352Z" fill="black"/>
</svg>
