<svg width="337" height="106" viewBox="0 0 337 106" fill="none" xmlns="http://www.w3.org/2000/svg">
<path d="M55.709 53.0016H56.4944C56.4944 51.7711 55.709 39.8081 82.135 39.8081H113.594V26.6116H82.138C55.709 26.6116 55.709 53.0016 55.709 53.0016Z" fill="black"/>
<path d="M82.1379 66.198C55.7119 66.198 56.4974 54.235 56.4974 53.0045H55.7119C55.7119 53.0045 55.7119 79.3945 82.1379 79.3945H113.594V66.198H82.1379Z" fill="black"/>
<path d="M310.622 26.6025H251.268V39.799H274.339V53.0075H274.342C274.342 79.3975 262.363 78.6131 261.131 78.6131V79.3975C261.131 79.3975 287.554 79.3975 287.554 53.0075V39.799H310.625V26.6025H310.622Z" fill="black"/>
<path d="M206.105 66.204C213.872 64.4617 226.379 58.8574 226.484 40.8289H226.487H226.49V26.6056H213.276V40.6014C213.276 64.7431 203.254 66.1442 200.601 66.207H192.18V79.4035H250.731V66.207H206.105V66.204Z" fill="black"/>
<path d="M138.156 53.0016V26.6116H124.941V53.0016C124.941 79.3915 151.367 79.3915 151.367 79.3915V78.6072C150.135 78.6072 138.156 79.3915 138.156 53.0016Z" fill="black"/>
<path d="M185.62 26.6116H172.406V53.0016C172.406 79.3915 160.426 78.6072 159.194 78.6072V79.3915C159.194 79.3915 185.62 79.3915 185.62 53.0016V26.6116V26.6116Z" fill="black"/>
<path d="M151.367 78.6072V79.3915H159.195V78.6072H151.367Z" fill="black"/>
<path d="M35.4074 74.9488H26.5068V79.3915H35.4074C44.3081 79.3915 44.3081 70.5031 44.3081 70.5031H44.0442C44.0412 70.9192 44.3051 74.9488 35.4074 74.9488Z" fill="black"/>
<path d="M35.4044 58.986H26.5068V63.4287H35.4074C44.3051 63.4287 44.0412 67.4583 44.0412 67.8714H44.3051C44.3051 67.8714 44.3051 58.986 35.4044 58.986Z" fill="black"/>
<path d="M44.041 67.8715V70.506H44.3048V67.8715H44.041Z" fill="black"/>
<path d="M35.4074 40.5834H44.3081V36.1377H35.2905V36.1407C26.5098 36.2215 26.5068 45.0262 26.5068 45.0262V49.4719V49.5018V53.9176H44.3051V49.4719H26.7706V45.0262H26.6268H26.7706C26.7706 44.613 26.5038 40.5834 35.4074 40.5834Z" fill="black"/>
<path d="M40.8096 31.159H44.3081V26.7133H42.2036L40.8096 31.159Z" fill="black"/>
<path d="M35.2966 26.7133V26.7163C26.5069 26.7912 26.5039 35.6018 26.5039 35.6018H26.7677C26.7677 35.1886 26.5039 31.1561 35.4045 31.1561H37.8957L39.3317 26.7103H35.2966V26.7133Z" fill="black"/>
</svg>
