<svg width="124" height="40" viewBox="0 0 124 40" fill="none" xmlns="http://www.w3.org/2000/svg">
<path d="M20.4983 19.5286H20.7873C20.7873 19.0753 20.4983 14.6674 30.2218 14.6674H41.7974V9.80511H30.2229C20.4983 9.80511 20.4983 19.5286 20.4983 19.5286Z" fill="white"/>
<path d="M30.2229 24.3909C20.4994 24.3909 20.7884 19.9831 20.7884 19.5297H20.4994C20.4994 19.5297 20.4994 29.2532 30.2229 29.2532H41.7973V24.3909H30.2229Z" fill="white"/>
<path d="M114.294 9.80182H92.4545V14.6641H100.944V19.5309H100.945C100.945 29.2544 96.537 28.9654 96.0836 28.9654V29.2544C96.0836 29.2544 105.806 29.2544 105.806 19.5309V14.6641H114.295V9.80182H114.294Z" fill="white"/>
<path d="M75.8368 24.3932C78.6949 23.7512 83.2969 21.6862 83.3355 15.0436H83.3366H83.3377V9.80292H78.4754V14.9597C78.4754 23.8549 74.7878 24.3711 73.8116 24.3943H70.7131V29.2566H92.2571V24.3943H75.8368V24.3932Z" fill="white"/>
<path d="M50.8348 19.5286V9.80511H45.9724V19.5286C45.9724 29.2522 55.696 29.2522 55.696 29.2522V28.9632C55.2426 28.9632 50.8348 29.2522 50.8348 19.5286Z" fill="white"/>
<path d="M68.2996 9.80511H63.4373V19.5286C63.4373 29.2522 59.0294 28.9632 58.5761 28.9632V29.2522C58.5761 29.2522 68.2996 29.2522 68.2996 19.5286V9.80511V9.80511Z" fill="white"/>
<path d="M55.696 28.9632V29.2522H58.5761V28.9632H55.696Z" fill="white"/>
<path d="M13.0283 27.6152H9.7533V29.2522H13.0283C16.3033 29.2522 16.3033 25.9772 16.3033 25.9772H16.2062C16.2051 26.1305 16.3022 27.6152 13.0283 27.6152Z" fill="white"/>
<path d="M13.0272 21.7337H9.7533V23.3707H13.0283C16.3022 23.3707 16.2051 24.8554 16.2051 25.0076H16.3022C16.3022 25.0076 16.3022 21.7337 13.0272 21.7337Z" fill="white"/>
<path d="M16.2051 25.0076V25.9783H16.3022V25.0076H16.2051Z" fill="white"/>
<path d="M13.0283 14.9531H16.3033V13.3151H12.9853V13.3162C9.7544 13.3459 9.7533 16.5901 9.7533 16.5901V18.2281V18.2391V19.8662H16.3022V18.2281H9.85037V16.5901H9.79742H9.85037C9.85037 16.4378 9.75219 14.9531 13.0283 14.9531Z" fill="white"/>
<path d="M15.016 11.4807H16.3033V9.84265H15.5289L15.016 11.4807Z" fill="white"/>
<path d="M12.9875 9.84266V9.84376C9.7533 9.87134 9.7522 13.1177 9.7522 13.1177H9.84927C9.84927 12.9654 9.7522 11.4796 13.0272 11.4796H13.9438L14.4722 9.84155H12.9875V9.84266Z" fill="white"/>
</svg>
