<svg width="285" height="53" viewBox="0 0 285 53" fill="none" xmlns="http://www.w3.org/2000/svg">
<path d="M29.2051 26.399H29.9905C29.9905 25.1685 29.2051 13.2055 55.6311 13.2055H87.0901V0.0090332H55.6341C29.2051 0.0090332 29.2051 26.399 29.2051 26.399Z" fill="black"/>
<path d="M55.634 39.5955C29.208 39.5955 29.9935 27.6325 29.9935 26.402H29.208C29.208 26.402 29.208 52.792 55.634 52.792H87.0901V39.5955H55.634Z" fill="black"/>
<path d="M284.118 0H224.764V13.1965H247.835V26.405H247.838C247.838 52.795 235.859 52.0106 234.627 52.0106V52.795C234.627 52.795 261.05 52.795 261.05 26.405V13.1965H284.121V0H284.118Z" fill="black"/>
<path d="M179.601 39.6015C187.368 37.8592 199.875 32.2549 199.98 14.2264H199.983H199.986V0.00305176H186.772V13.9988C186.772 38.1406 176.75 39.5417 174.097 39.6045H165.676V52.801H224.227V39.6045H179.601V39.6015Z" fill="black"/>
<path d="M111.652 26.399V0.0090332H98.4371V26.399C98.4371 52.7889 124.863 52.7889 124.863 52.7889V52.0046C123.631 52.0046 111.652 52.7889 111.652 26.399Z" fill="black"/>
<path d="M159.116 0.0090332H145.902V26.399C145.902 52.7889 133.922 52.0046 132.69 52.0046V52.7889C132.69 52.7889 159.116 52.7889 159.116 26.399V0.0090332Z" fill="black"/>
<path d="M8.90347 48.3462H0.00286865V52.7889H8.90347C17.8042 52.7889 17.8042 43.9005 17.8042 43.9005H17.5403C17.5373 44.3166 17.8012 48.3462 8.90347 48.3462Z" fill="black"/>
<path d="M8.90047 32.3834H0.00286865V36.8261H8.90347C17.8012 36.8261 17.5373 40.8557 17.5373 41.2688H17.8012C17.8012 41.2688 17.8012 32.3834 8.90047 32.3834Z" fill="black"/>
<path d="M17.5371 41.2689V43.9034H17.8009V41.2689H17.5371Z" fill="black"/>
<path d="M8.90347 13.9809H17.8042V9.53516H8.78657V9.53816C0.00586987 9.61896 0.00286865 18.4237 0.00286865 18.4237V22.8694V22.8993V27.3151H17.8012V22.8694H0.266668V18.4237H0.122869H0.266668C0.266668 18.0105 -0.000132561 13.9809 8.90347 13.9809Z" fill="black"/>
<path d="M14.3057 4.55642H17.8042V0.110718H15.6997L14.3057 4.55642Z" fill="black"/>
<path d="M8.7927 0.110788V0.113787C0.00300026 0.188687 0 8.99929 0 8.99929H0.2638C0.2638 8.58609 -1.90735e-06 4.55359 8.9006 4.55359H11.3918L12.8278 0.107788H8.7927V0.110788Z" fill="black"/>
</svg>
