<svg width="28" height="28" viewBox="0 0 28 28" fill="none" xmlns="http://www.w3.org/2000/svg">
<path fill-rule="evenodd" clip-rule="evenodd" d="M25.622 7.0428C25.7963 6.4422 25.622 6 24.7873 6H22.0311C21.3297 6 21.0063 6.3817 20.8309 6.803C20.8309 6.803 19.4292 10.3186 17.4437 12.6022C16.8011 13.2644 16.5092 13.4745 16.1585 13.4745C15.9832 13.4745 15.7196 13.2644 15.7196 12.6627V7.0428C15.7196 6.3212 15.5264 6 14.9427 6H10.6083C10.1705 6 9.90696 6.3344 9.90696 6.6523C9.90696 7.3354 10.9002 7.4938 11.0021 9.4166V13.5944C11.0021 14.5107 10.8414 14.6768 10.4908 14.6768C9.55627 14.6768 7.28307 11.1447 5.93385 7.1033C5.6724 6.3168 5.40781 6 4.70327 6H1.94498C1.1575 6 1 6.3817 1 6.803C1 7.5532 1.93448 11.28 5.35216 16.2091C7.63061 19.5751 10.8383 21.4 13.7604 21.4C15.5128 21.4 15.7291 20.9952 15.7291 20.2967V17.7524C15.7291 16.9417 15.895 16.78 16.4504 16.78C16.8599 16.78 17.5603 16.9912 19.1961 18.6137C21.0651 20.5376 21.3727 21.4 22.4248 21.4H25.181C25.9685 21.4 26.3633 20.9952 26.1365 20.1944C25.8866 19.398 24.9941 18.2419 23.8108 16.8702C23.1682 16.0892 22.2043 15.2477 21.9114 14.8264C21.5029 14.2863 21.6195 14.0454 21.9114 13.5647C21.9114 13.5647 25.2713 8.6961 25.6209 7.0428H25.622Z" fill="#A6A6A6"/>
</svg>
