<svg width="285" height="53" viewBox="0 0 285 53" fill="none" xmlns="http://www.w3.org/2000/svg">
<path d="M29.2049 26.3985H29.9904C29.9904 25.1681 29.2049 13.2052 55.6309 13.2052H87.0902V0.00897217H55.6339C29.2049 0.00897217 29.2049 26.3985 29.2049 26.3985Z" fill="white"/>
<path d="M55.6338 39.5947C29.2079 39.5947 29.9934 27.6318 29.9934 26.4014H29.2079C29.2079 26.4014 29.2079 52.7909 55.6338 52.7909H87.0902V39.5947H55.6338Z" fill="white"/>
<path d="M284.117 0H224.763V13.1963H247.834V26.4045H247.837C247.837 52.794 235.858 52.0097 234.626 52.0097V52.794C234.626 52.794 261.049 52.794 261.049 26.4045V13.1963H284.12V0H284.117Z" fill="white"/>
<path d="M179.6 39.6007C187.368 37.8584 199.875 32.2542 199.98 14.2261H199.983H199.986V0.00299072H186.771V13.9986C186.771 38.1398 176.749 39.5409 174.096 39.6037H165.675V52.8H224.226V39.6037H179.6V39.6007Z" fill="white"/>
<path d="M111.651 26.3985V0.00897217H98.437V26.3985C98.437 52.788 124.863 52.788 124.863 52.788V52.0037C123.631 52.0037 111.651 52.788 111.651 26.3985Z" fill="white"/>
<path d="M159.116 0.00897217H145.902V26.3985C145.902 52.788 133.922 52.0037 132.69 52.0037V52.788C132.69 52.788 159.116 52.788 159.116 26.3985V0.00897217V0.00897217Z" fill="white"/>
<path d="M124.863 52.0037V52.7881H132.69V52.0037H124.863Z" fill="white"/>
<path d="M8.90357 48.3454H0.00299072V52.788H8.90357C17.8041 52.788 17.8041 43.8997 17.8041 43.8997H17.5403C17.5373 44.3158 17.8011 48.3454 8.90357 48.3454Z" fill="white"/>
<path d="M8.90057 32.383H0.00299072V36.8257H8.90357C17.8012 36.8257 17.5373 40.8552 17.5373 41.2683H17.8011C17.8011 41.2683 17.8011 32.383 8.90057 32.383Z" fill="white"/>
<path d="M17.5374 41.2682V43.9026H17.8012V41.2682H17.5374Z" fill="white"/>
<path d="M8.90357 13.9806H17.8041V9.53491H8.78665V9.53791C0.0059892 9.61874 0.00299072 18.4232 0.00299072 18.4232V22.8689V22.8988V27.3145H17.8011V22.8689H0.266802V18.4232H0.122905H0.266802C0.266802 18.0101 -6.61094e-06 13.9806 8.90357 13.9806Z" fill="white"/>
<path d="M14.3057 4.55649H17.8041V0.11084H15.6997L14.3057 4.55649Z" fill="white"/>
<path d="M8.79265 0.110843V0.113836C0.00299619 0.188678 0 8.99915 0 8.99915H0.263809C0.263809 8.58602 -1.71538e-06 4.5535 8.90058 4.5535H11.3918L12.8277 0.107849H8.79265V0.110843Z" fill="white"/>
</svg>
